<?xml version="1.0" encoding="utf-8"?>
<svg viewBox="37.7131 152.077 430.6063 167.414" xmlns="http://www.w3.org/2000/svg">
  <defs>
    <style>@import url(https://fonts.googleapis.com/css2?family=Alegreya+Sans%3Aital%2Cwght%400%2C100%3B0%2C300%3B0%2C400%3B0%2C500%3B0%2C700%3B0%2C800%3B0%2C900%3B1%2C100%3B1%2C300%3B1%2C400%3B1%2C500%3B1%2C700%3B1%2C800%3B1%2C900&amp;display=swap);</style>
  </defs>
  <g transform="matrix(0.7941510081291199, 0, 0, 0.7941510081291199, 9.564712928673998, 63.29467830940115)" style="">
    <title>Fox</title>
    <path fill="#F4900C" d="M 122.588 162.957 C 126.929 180.361 65.368 232.158 48.406 189.994 C 38.569 165.563 29.979 114.346 39.744 111.912 C 49.508 109.484 118.254 145.546 122.588 162.957 Z" style=""/>
    <path fill="#A0041E" d="M 109.433 166.606 C 115.767 176.753 97.353 196.697 87.212 203.037 C 77.065 209.377 68.086 199.395 58.091 173.916 C 53.723 162.772 47.1 132.549 50.814 130.227 C 54.522 127.911 103.093 156.459 109.433 166.606 Z" style=""/>
    <path fill="#F4900C" d="M 182.797 162.957 C 178.462 180.368 240.017 232.158 256.986 189.994 C 266.816 165.563 275.406 114.346 265.642 111.912 C 255.878 109.484 187.138 145.546 182.797 162.957 Z" style=""/>
    <path fill="#A0041E" d="M 195.959 166.606 C 189.625 176.753 208.039 196.697 218.179 203.037 C 228.32 209.377 237.299 199.395 247.294 173.916 C 251.662 162.779 258.286 132.556 254.578 130.233 C 250.864 127.911 202.299 156.459 195.959 166.606 Z" style=""/>
    <path fill="#F18F26" d="M 247.387 275.84 C 247.387 272.845 246.146 268.643 244.702 264.71 C 248.561 264.895 254.723 265.971 262.977 270.1 C 262.924 266.564 262.198 263.608 261.176 260.91 C 261.446 261.042 261.671 261.134 261.941 261.273 C 254.664 239.435 240.11 224.875 240.11 224.875 L 254.664 224.875 C 239.285 194.111 221.907 171.996 201.389 161.809 C 192.219 156.049 177.057 152.982 152.745 152.975 L 152.726 152.975 C 128.348 152.975 113.167 156.063 104.003 161.855 C 83.524 172.062 66.173 194.156 50.821 224.875 L 65.381 224.875 C 65.381 224.875 50.821 239.429 43.537 261.273 C 43.735 261.174 43.9 261.108 44.091 261.009 C 42.765 263.596 42.066 266.597 42.231 270.094 C 50.563 265.924 56.857 264.869 60.789 264.697 C 59.542 268.082 58.527 271.585 58.243 274.428 C 57.431 276.876 56.983 279.785 57.352 283.289 C 78.51 273.677 88.407 275.049 99.952 280.821 C 107.955 304.724 127.701 322.604 152.739 322.604 C 177.763 322.604 197.246 304.17 205.242 280.274 C 214.861 272.027 229.705 274.501 247.572 283.019 C 248.007 280.287 247.809 277.919 247.334 275.807 L 247.387 275.84 Z" style=""/>
    <path fill="#FFD983" d="M 240.103 253.996 C 240.143 253.996 247.413 254.016 261.934 261.273 C 253.694 242.543 212.288 234.421 196.414 239.561 C 188.689 252.452 187.963 272.568 174.095 283.25 C 162.609 292.691 143.001 292.869 131.35 283.25 C 115.878 270.556 114.467 244.898 109.037 239.561 C 93.157 234.408 51.764 242.556 43.517 261.273 C 58.038 254.009 65.315 253.996 65.348 253.996 C 65.348 254.002 58.071 268.563 58.071 275.84 L 58.078 275.834 L 58.078 275.84 C 73.899 265.463 91.831 260.857 107.091 272.858 C 118.082 325.117 188.194 322.637 198.354 272.858 C 213.621 260.864 231.54 265.456 247.367 275.84 L 247.367 275.834 L 247.374 275.84 C 247.387 268.563 240.11 253.996 240.103 253.996 Z" style=""/>
    <path fill="#272B2B" d="M 106.55 210.446 C 106.55 210.446 106.55 200.549 116.446 200.549 C 126.342 200.549 126.342 210.446 126.342 210.446 L 126.342 220.342 C 126.342 220.342 126.342 230.239 116.446 230.239 C 106.55 230.239 106.55 220.342 106.55 220.342 L 106.55 210.446 Z M 179.123 210.446 C 179.123 210.446 179.123 200.549 189.018 200.549 C 198.915 200.549 198.915 210.446 198.915 210.446 L 198.915 220.342 C 198.915 220.342 198.915 230.239 189.018 230.239 C 179.123 230.239 179.123 220.342 179.123 220.342 L 179.123 210.446 Z M 132.538 281.752 C 125.801 283.124 146.003 307.931 152.739 307.931 C 159.468 307.931 179.67 283.124 172.94 281.752 C 166.204 280.379 139.274 280.379 132.538 281.752 Z" style=""/>
  </g>
  <text style="font-family: 'Alegreya Sans'; font-size: 79px; font-weight: 700; letter-spacing: 1px; stroke: rgb(255, 153, 0); stroke-width: 2.29245px; white-space: pre;" transform="matrix(0.8724290132522583, 0, 0, 0.8724290132522583, 9.477661534478102, 91.38635776598318)"><tspan x="285.754" y="148.143">Nomad</tspan><tspan x="285.754" dy="1.1em">​</tspan><tspan>Stats</tspan></text>
</svg>