<svg version="1.1" id="Layer_1" xmlns="http://www.w3.org/2000/svg" xmlns:xlink="http://www.w3.org/1999/xlink" x="0px" y="0px"
	 width="100%" viewBox="0 0 1024 1024" enable-background="new 0 0 1024 1024" xml:space="preserve">
<path fill="#020001" opacity="1.000000" stroke="none" 
	d="
M674.000000,1025.000000 
	C449.333344,1025.000000 225.166672,1025.000000 1.000000,1025.000000 
	C1.000000,683.666687 1.000000,342.333344 1.000000,1.000000 
	C342.333344,1.000000 683.666687,1.000000 1025.000000,1.000000 
	C1025.000000,342.333344 1025.000000,683.666687 1025.000000,1025.000000 
	C908.166687,1025.000000 791.333313,1025.000000 674.000000,1025.000000 
M207.992798,533.708374 
	C208.338943,541.000549 208.571762,548.300598 209.072327,555.582153 
	C209.389465,560.195190 209.707199,564.870422 210.718430,569.361572 
	C213.582840,582.083435 216.318588,594.868713 220.017883,607.358582 
	C223.934830,620.583313 228.156479,633.820007 233.629730,646.451477 
	C238.642197,658.019409 245.151657,668.995789 251.628326,679.859070 
	C261.828156,696.967285 273.660004,713.024048 287.264130,727.528870 
	C303.078766,744.390686 319.676544,760.453979 339.514099,772.874023 
	C355.049011,782.600220 370.337860,792.497192 387.181427,800.076294 
	C403.639313,807.481873 420.401154,813.362732 437.833344,817.951233 
	C462.920197,824.554626 488.493042,826.049194 514.157104,826.844788 
	C522.546265,827.104919 531.094055,826.302917 539.383301,824.893005 
	C557.151367,821.870789 574.989868,818.887939 592.429810,814.439331 
	C604.845642,811.272278 616.952026,806.390137 628.665771,801.098511 
	C643.480591,794.406128 658.426147,787.575562 672.101746,778.893066 
	C690.785828,767.030457 708.174133,753.297607 723.884583,737.401855 
	C737.689331,723.434143 750.048340,708.528503 760.666809,692.054016 
	C770.244202,677.194519 779.240051,662.028137 785.517029,645.461182 
	C790.656982,631.895264 795.831482,618.291260 799.890320,604.382996 
	C803.215393,592.988831 805.322754,581.186951 807.224121,569.445068 
	C808.992493,558.524658 810.492737,547.467468 810.842285,536.430298 
	C811.551880,514.025024 810.583984,491.713867 807.289612,469.403687 
	C804.886169,453.127380 801.210754,437.196838 796.351013,421.682617 
	C790.909668,404.311737 784.422913,387.105408 775.155945,371.259796 
	C767.167603,357.600311 759.314148,343.787842 750.230591,330.865814 
	C742.558716,319.952118 733.284790,310.152802 724.580261,299.979797 
	C714.216370,287.867432 702.420471,277.271057 689.606812,267.813171 
	C684.191650,263.816193 678.749268,259.839722 673.137329,256.129181 
	C662.710632,249.235260 652.435181,242.036392 641.556824,235.925690 
	C632.668091,230.932648 623.114258,227.040009 613.634338,223.205902 
	C603.543701,219.124786 593.343262,215.173203 582.911499,212.118790 
	C573.416443,209.338638 563.596436,207.551712 553.828003,205.854584 
	C544.421936,204.220428 534.930542,202.673355 525.418518,202.156967 
	C513.787292,201.525528 502.084106,201.691864 490.434052,202.117111 
	C482.521729,202.405930 474.533081,203.161896 466.779266,204.712570 
	C449.791168,208.110062 432.634583,210.992691 416.475922,217.683426 
	C403.423584,223.087936 389.986450,227.707993 377.378662,233.996536 
	C366.947693,239.199326 357.537201,246.425461 347.570984,252.587540 
	C331.572754,262.479187 317.312073,274.600403 304.024750,287.735352 
	C293.721436,297.920471 284.152893,308.927673 275.001404,320.174530 
	C267.507233,329.384613 260.783173,339.275848 254.327423,349.259399 
	C248.960831,357.558594 244.377884,366.375122 239.646332,375.070557 
	C236.647018,380.582520 233.334930,386.063568 231.341537,391.957092 
	C225.687775,408.672577 220.079651,425.444275 215.556152,442.486481 
	C212.685043,453.303284 211.508423,464.607422 210.083084,475.758392 
	C208.950317,484.620392 208.273666,493.570801 207.975510,502.501373 
	C207.639099,512.578247 207.952713,522.676880 207.992798,533.708374 
z"/>
<path fill="#111111" opacity="1.000000" stroke="none" 
	d="
M207.988220,533.237183 
	C207.952713,522.676880 207.639099,512.578247 207.975510,502.501373 
	C208.273666,493.570801 208.950317,484.620392 210.083084,475.758392 
	C211.508423,464.607422 212.685043,453.303284 215.556152,442.486481 
	C220.079651,425.444275 225.687775,408.672577 231.341537,391.957092 
	C233.334930,386.063568 236.647018,380.582520 239.646332,375.070557 
	C244.377884,366.375122 248.960831,357.558594 254.327423,349.259399 
	C260.783173,339.275848 267.507233,329.384613 275.001404,320.174530 
	C284.152893,308.927673 293.721436,297.920471 304.024750,287.735352 
	C317.312073,274.600403 331.572754,262.479187 347.570984,252.587540 
	C357.537201,246.425461 366.947693,239.199326 377.378662,233.996536 
	C389.986450,227.707993 403.423584,223.087936 416.475922,217.683426 
	C432.634583,210.992691 449.791168,208.110062 466.779266,204.712570 
	C474.533081,203.161896 482.521729,202.405930 490.434052,202.117111 
	C502.084106,201.691864 513.787292,201.525528 525.418518,202.156967 
	C534.930542,202.673355 544.421936,204.220428 553.828003,205.854584 
	C563.596436,207.551712 573.416443,209.338638 582.911499,212.118790 
	C593.343262,215.173203 603.543701,219.124786 613.634338,223.205902 
	C623.114258,227.040009 632.668091,230.932648 641.556824,235.925690 
	C652.435181,242.036392 662.710632,249.235260 673.137329,256.129181 
	C678.749268,259.839722 684.191650,263.816193 689.606812,267.813171 
	C702.420471,277.271057 714.216370,287.867432 724.580261,299.979797 
	C733.284790,310.152802 742.558716,319.952118 750.230591,330.865814 
	C759.314148,343.787842 767.167603,357.600311 775.155945,371.259796 
	C784.422913,387.105408 790.909668,404.311737 796.351013,421.682617 
	C801.210754,437.196838 804.886169,453.127380 807.289612,469.403687 
	C810.583984,491.713867 811.551880,514.025024 810.842285,536.430298 
	C810.492737,547.467468 808.992493,558.524658 807.224121,569.445068 
	C805.322754,581.186951 803.215393,592.988831 799.890320,604.382996 
	C795.831482,618.291260 790.656982,631.895264 785.517029,645.461182 
	C779.240051,662.028137 770.244202,677.194519 760.666809,692.054016 
	C750.048340,708.528503 737.689331,723.434143 723.884583,737.401855 
	C708.174133,753.297607 690.785828,767.030457 672.101746,778.893066 
	C658.426147,787.575562 643.480591,794.406128 628.665771,801.098511 
	C616.952026,806.390137 604.845642,811.272278 592.429810,814.439331 
	C574.989868,818.887939 557.151367,821.870789 539.383301,824.893005 
	C531.094055,826.302917 522.546265,827.104919 514.157104,826.844788 
	C488.493042,826.049194 462.920197,824.554626 437.833344,817.951233 
	C420.401154,813.362732 403.639313,807.481873 387.181427,800.076294 
	C370.337860,792.497192 355.049011,782.600220 339.514099,772.874023 
	C319.676544,760.453979 303.078766,744.390686 287.264130,727.528870 
	C273.660004,713.024048 261.828156,696.967285 251.628326,679.859070 
	C245.151657,668.995789 238.642197,658.019409 233.629730,646.451477 
	C228.156479,633.820007 223.934830,620.583313 220.017883,607.358582 
	C216.318588,594.868713 213.582840,582.083435 210.718430,569.361572 
	C209.707199,564.870422 209.389465,560.195190 209.072327,555.582153 
	C208.571762,548.300598 208.338943,541.000549 207.988220,533.237183 
M559.032837,536.842651 
	C558.831116,536.605042 558.629395,536.367432 558.116272,535.526123 
	C556.078735,534.471375 554.064087,532.559387 551.999878,532.504211 
	C540.526917,532.197510 529.041565,532.290466 517.561035,532.350159 
	C510.506378,532.386902 509.139801,533.803528 509.146912,540.872864 
	C509.177124,570.823425 509.239471,600.773987 509.300629,630.724548 
	C509.302185,631.483826 509.425812,632.242920 509.501038,633.099243 
	C510.343506,633.052979 510.865448,633.147766 511.286072,632.983398 
	C526.285461,627.121582 541.284424,621.257996 556.248413,615.306702 
	C557.344666,614.870728 558.179138,613.776611 559.599609,612.942566 
	C559.830078,612.777649 560.060547,612.612732 560.291016,612.447815 
	C559.881958,612.300537 559.472961,612.153259 558.799133,611.100403 
	C558.755798,586.427856 558.712463,561.755371 559.032837,536.842651 
M627.293579,713.611694 
	C627.520874,713.013855 627.944519,712.416687 627.946594,711.818054 
	C627.989075,699.516113 628.014343,687.213745 627.927917,674.912292 
	C627.921143,673.946716 627.069275,672.987122 626.321228,671.296021 
	C625.076477,669.742981 624.143494,667.642273 622.535645,666.726990 
	C613.010986,661.304626 603.340271,656.137939 593.697205,650.924988 
	C588.351135,648.034973 582.963196,645.222351 576.886230,641.999329 
	C576.731079,644.445129 576.548828,646.041870 576.541321,647.639343 
	C576.480103,660.619507 576.469299,673.599854 576.408936,686.580078 
	C576.329224,703.709778 576.218445,720.839294 575.501404,738.529907 
	C575.710876,742.697510 575.920349,746.865173 576.398254,751.826294 
	C576.306580,753.207153 576.214966,754.588074 575.569519,756.384399 
	C575.750793,757.598755 575.932007,758.813049 576.372498,760.872681 
	C576.372498,763.167358 576.372498,765.461975 576.372498,767.642944 
	C577.113403,767.841064 577.456177,768.052185 577.741699,767.991943 
	C594.269836,764.503235 609.750488,758.118347 624.870850,750.783020 
	C625.720520,750.370850 626.108826,749.007629 627.310181,747.667725 
	C627.115295,746.419434 626.920471,745.171082 626.420288,743.041626 
	C626.496460,733.352173 626.572632,723.662720 627.293579,713.611694 
M558.645020,712.122925 
	C558.734619,709.755859 558.824219,707.388794 559.515991,704.454712 
	C559.318359,700.630249 559.120789,696.805847 558.674316,692.179077 
	C558.758179,690.792114 558.842041,689.405090 559.513000,687.474915 
	C559.317322,684.643982 559.121643,681.813049 558.676392,678.075867 
	C558.676392,663.373230 558.676392,648.670593 558.676392,633.335693 
	C542.990540,639.382629 528.175354,645.223389 513.243835,650.749634 
	C509.935364,651.974182 509.213501,653.767090 509.223022,656.992920 
	C509.337708,695.792236 509.320587,734.591919 509.350952,773.391541 
	C509.352112,774.856323 509.486359,776.321045 509.581604,778.252441 
	C526.293152,778.005371 542.596497,777.077637 558.915283,772.766113 
	C558.915283,757.942139 558.915283,743.481445 559.523254,728.443176 
	C559.317078,723.287598 559.110840,718.132019 558.645020,712.122925 
M321.342499,560.149292 
	C321.909302,560.421387 322.474579,560.927063 323.043121,560.930725 
	C332.111359,560.989563 341.180511,561.028503 350.247803,560.925659 
	C351.163330,560.915283 352.068176,559.961304 353.894867,559.227600 
	C361.603882,559.282471 369.312927,559.337280 377.319824,560.088684 
	C381.612762,561.062866 385.931091,562.463257 390.840729,559.141663 
	C395.984253,560.213379 398.327911,557.903137 399.038513,552.886841 
	C400.762878,540.714844 403.468353,528.633850 404.416718,516.410522 
	C406.059784,495.232758 404.558868,474.164001 398.978821,453.529297 
	C398.314819,451.073883 397.807709,449.172363 394.242615,449.197540 
	C356.599518,449.463043 318.954773,449.496826 281.310486,449.590668 
	C273.411469,449.610382 273.410034,449.602539 270.672943,457.209229 
	C258.991821,489.672363 258.788757,523.123962 262.228180,556.860962 
	C262.328644,557.846375 263.947205,558.677002 265.384705,560.289368 
	C265.990631,560.512329 266.595886,560.928040 267.202545,560.930054 
	C281.063568,560.976746 294.924957,561.013428 308.785431,560.922791 
	C309.916473,560.915344 311.041504,559.981323 312.965332,559.256348 
	C315.651306,559.325195 318.337250,559.394043 321.342499,560.149292 
M377.376587,353.135010 
	C391.361877,357.857361 400.408722,367.399902 405.283691,381.246338 
	C406.598724,384.981445 408.750061,388.422394 410.520996,391.996613 
	C411.731873,394.440582 412.948822,396.881531 414.195099,399.388245 
	C422.688202,393.363495 422.917297,393.011536 422.069122,383.596283 
	C421.517090,377.468262 420.551422,371.371307 420.194122,365.235779 
	C420.088104,363.414978 420.897522,360.980804 422.172241,359.727783 
	C432.860199,349.221680 443.747467,338.918121 454.596985,328.576904 
	C455.677277,327.547211 456.905640,326.672882 458.386719,325.464081 
	C466.408539,362.057007 474.233063,397.750031 482.057617,433.443024 
	C482.645111,433.900360 483.232605,434.357697 483.820129,434.815033 
	C485.556366,432.403778 486.972443,429.652100 489.096985,427.653625 
	C493.251495,423.745575 495.385651,419.458771 494.828674,413.554016 
	C494.314545,408.103180 494.493622,402.556976 494.791779,397.075867 
	C494.895233,395.174500 495.857635,392.969482 497.141205,391.546906 
	C501.374512,386.855133 505.874268,382.396545 510.396545,377.976135 
	C512.337524,376.078857 512.589294,374.469391 510.617188,372.493439 
	C509.143524,371.016968 507.837799,369.372955 506.322815,367.650696 
	C502.294647,370.985657 498.665039,373.990601 494.097504,377.772095 
	C494.097504,374.500641 494.443146,372.329132 494.028900,370.313782 
	C493.025238,365.431152 495.324829,362.459717 498.759460,359.361603 
	C503.537903,355.051300 507.722321,350.082458 512.415405,345.126892 
	C510.084717,342.118927 508.101562,339.559448 505.897339,336.714691 
	C501.882477,340.246552 498.343903,343.359436 493.865112,347.299438 
	C493.865112,343.445862 494.151733,340.650299 493.799957,337.937531 
	C493.228790,333.533051 494.912994,330.661163 498.259979,327.805023 
	C502.796234,323.933990 506.744202,319.354187 510.800903,314.946289 
	C514.266113,311.181152 509.862152,309.394165 508.379272,307.111450 
	C506.816406,304.705597 504.775879,305.589752 502.958405,307.363861 
	C500.192017,310.064178 497.311005,312.647034 493.307739,316.368225 
	C493.307739,308.947662 493.049500,303.138977 493.442413,297.374695 
	C493.587433,295.247040 494.793152,292.748108 496.320953,291.228912 
	C508.008057,279.607330 520.263672,268.532227 531.524475,256.520355 
	C535.647461,252.122360 538.286377,245.898453 540.277283,240.055984 
	C542.354553,233.960068 538.426025,229.582108 531.911499,229.708023 
	C524.343689,229.854279 517.496582,232.373688 511.924835,237.578873 
	C501.097290,247.694061 490.434357,257.985199 479.651611,268.148682 
	C478.492126,269.241577 476.941711,270.810028 475.657654,270.733429 
	C468.312988,270.295044 460.994019,269.425629 453.505585,268.686737 
	C455.923401,266.149658 457.953491,263.742584 460.270203,261.653412 
	C463.749512,258.515869 461.315216,256.479065 459.206421,254.255554 
	C456.969482,251.896957 454.883240,250.056030 451.845276,253.451279 
	C448.185638,257.541351 444.241882,261.378296 440.390656,265.294922 
	C439.602905,266.096039 438.635468,267.438873 437.827209,267.385071 
	C432.504333,267.030731 427.202332,266.362396 421.115906,265.713562 
	C424.206940,262.906525 426.604218,260.871429 428.838013,258.670380 
	C433.039734,254.530167 428.108459,252.636002 426.480865,250.091019 
	C424.679565,247.274475 422.553070,247.760941 420.375763,250.056641 
	C416.368286,254.282043 412.236420,258.391296 408.090637,262.482300 
	C407.207581,263.353729 406.033173,264.569702 405.010651,264.552887 
	C399.599670,264.464050 394.194336,264.032104 388.481567,263.701416 
	C391.331512,260.694000 395.584137,258.210876 395.734558,255.500153 
	C395.894043,252.625076 392.157684,249.533829 390.122742,246.536987 
	C389.355743,246.298325 388.588715,246.059677 387.821716,245.821014 
	C385.107025,249.186630 382.246399,252.446457 379.711548,255.942474 
	C375.829987,261.295807 370.937408,263.320618 364.324463,262.128845 
	C352.165863,259.937561 347.551819,270.137695 339.463287,277.056396 
	C374.523071,285.214386 408.264313,293.065521 439.565369,300.348877 
	C428.372559,312.524017 416.707153,325.298004 404.872009,337.912750 
	C404.003113,338.838867 401.862671,339.017090 400.389954,338.853546 
	C394.439636,338.192749 388.359344,337.850677 382.625061,336.293488 
	C373.845062,333.909210 366.713470,335.120758 361.458984,343.030884 
	C361.297913,343.273346 361.298157,343.622986 361.156830,344.187836 
	C366.314789,347.033936 371.521545,349.906952 377.376587,353.135010 
M686.974976,569.484070 
	C689.571838,567.504578 688.871643,561.113892 694.853760,563.832458 
	C694.853760,551.362915 694.853760,539.107300 694.853760,526.468628 
	C691.976685,526.468628 689.337158,526.464783 686.697632,526.469727 
	C683.866394,526.474976 681.029053,526.611145 678.205139,526.472290 
	C672.813293,526.207153 668.319397,522.196167 668.271973,517.781982 
	C668.222900,513.212097 672.477966,509.967010 678.556519,509.956482 
	C683.986328,509.947083 689.416199,509.954529 695.041382,509.954529 
	C695.041382,488.311462 695.053406,467.181732 695.030884,446.051971 
	C695.026550,441.946594 692.892273,440.046906 688.769775,440.064667 
	C675.943787,440.119904 663.117493,440.094238 650.291321,440.080963 
	C646.174500,440.076721 644.157898,442.088623 644.196899,446.206482 
	C644.215820,448.204681 644.158447,450.203522 644.157349,452.202057 
	C644.122925,513.000488 644.089722,573.798950 644.070007,634.597412 
	C644.069641,635.775085 644.232605,636.952820 644.391113,639.105835 
	C658.861328,615.495300 672.758911,592.819153 686.974976,569.484070 
M576.153015,581.499939 
	C576.177551,593.329102 576.314819,605.159912 576.146912,616.986328 
	C576.105347,619.917114 577.060303,621.516235 579.564819,622.870728 
	C591.272400,629.202637 602.895935,635.689941 614.553772,642.113770 
	C618.279846,644.166870 622.019409,646.195618 625.963684,648.350769 
	C626.168945,647.263550 626.338318,646.786865 626.337769,646.310364 
	C626.276733,595.328430 626.186890,544.346436 626.160095,493.364471 
	C626.157959,489.286621 624.429138,487.796722 620.381226,487.859344 
	C609.221069,488.032135 598.034180,488.364227 586.900146,487.799774 
	C576.104614,487.252563 576.372681,489.857697 576.343201,498.527924 
	C576.250305,525.851807 576.212219,553.175903 576.153015,581.499939 
M352.537811,618.052002 
	C368.416931,606.740601 381.073029,592.618530 390.551392,575.291504 
	C348.606049,575.291504 307.287384,575.291504 265.938843,575.291504 
	C265.938843,576.317688 265.820374,577.005066 265.955963,577.638000 
	C270.819519,600.339417 278.183685,622.176331 288.863800,642.820740 
	C289.359619,643.779236 291.751099,644.473083 293.030487,644.203308 
	C314.431244,639.689514 334.027771,630.971619 352.537811,618.052002 
M713.070496,674.494690 
	C714.393860,672.861023 715.890625,671.338074 717.014709,669.577148 
	C735.912415,639.973694 749.580200,608.294983 755.570984,573.475281 
	C758.229675,558.022339 759.332825,542.534119 758.917786,526.993774 
	C743.508423,526.993774 728.446228,526.993774 713.008606,526.993774 
	C713.008606,576.087830 713.008606,624.873047 713.070496,674.494690 
M695.144958,633.500061 
	C695.144958,618.988586 695.144958,604.477051 695.144958,589.110413 
	C694.195923,590.235718 693.860107,590.545593 693.629456,590.920166 
	C678.460876,615.556335 663.392944,640.255310 648.059631,664.788452 
	C645.101562,669.521301 643.911682,674.227234 643.976074,679.759094 
	C644.208313,699.711609 644.067383,719.668518 644.067383,740.421204 
	C646.577637,738.870544 648.821838,737.823914 650.663025,736.292603 
	C664.083618,725.130798 677.355042,713.788635 690.839844,702.705750 
	C693.923157,700.171631 695.250122,697.608704 695.202148,693.494751 
	C694.972534,673.832336 695.126282,654.165405 695.144958,633.500061 
M465.978485,669.357727 
	C462.738007,670.648560 459.587982,672.308350 456.232727,673.131104 
	C452.552521,674.033508 451.798645,675.993286 451.811615,679.501953 
	C451.919922,708.802124 451.830811,738.103088 451.820587,767.403809 
	C451.820099,768.836060 451.999969,770.268250 452.133301,772.260315 
	C465.551605,774.184204 478.606171,776.055969 491.920776,777.965027 
	C491.920776,738.053345 491.920776,699.494141 491.920776,660.214478 
	C483.237976,663.271484 474.975708,666.180420 465.978485,669.357727 
M289.823303,413.298706 
	C286.333893,419.794708 282.844513,426.290710 278.968628,433.506165 
	C317.406281,433.506165 354.576233,433.506165 391.904419,433.506165 
	C391.826416,432.719513 391.892090,432.205078 391.717804,431.791840 
	C379.405548,402.592377 357.897980,382.077148 330.621368,366.951569 
	C327.948456,365.469360 326.500122,366.429718 324.672607,368.244446 
	C311.255249,381.568085 299.444061,396.124390 289.823303,413.298706 
M563.654663,383.765503 
	C563.788391,377.325287 562.300354,374.654633 558.390564,374.932770 
	C552.984131,375.317352 553.029053,379.410522 553.048157,383.386230 
	C553.069580,387.857941 553.053101,392.329834 553.053101,396.633942 
	C529.030273,405.792236 520.188843,416.956451 520.935059,436.812531 
	C521.590942,454.265045 531.875610,465.478516 553.003479,471.724823 
	C553.060303,472.182129 553.207092,472.673889 553.167053,473.149902 
	C552.862183,476.771759 553.377991,480.303497 557.687073,480.649078 
	C561.846558,480.982635 563.101196,477.904968 563.597534,474.130249 
	C563.750977,472.963165 565.722107,471.478180 567.114929,471.116302 
	C582.534668,467.110168 593.706970,454.832977 595.016113,440.174652 
	C596.626282,422.145844 589.069946,406.114532 573.426086,400.765442 
	C563.981750,397.536163 562.631958,392.657227 563.654663,383.765503 
M713.182434,480.500000 
	C713.182434,490.271027 713.182434,500.042053 713.182434,509.867737 
	C728.698547,509.867737 743.773926,509.867737 759.010071,509.867737 
	C759.010071,508.125549 759.100647,506.655701 758.996582,505.199799 
	C757.154114,479.421692 751.058899,454.623535 741.336609,430.737823 
	C736.087891,417.842804 735.845703,417.941376 721.967651,417.976105 
	C714.471069,417.994873 713.237976,419.066406 713.204407,426.529144 
	C713.125000,444.185760 713.182861,461.843018 713.182434,480.500000 
M663.670593,381.897308 
	C660.853943,379.635559 658.058105,377.347107 655.211182,375.124146 
	C653.912659,374.110168 652.213379,373.456085 651.254395,372.209229 
	C650.484131,371.207916 649.868652,368.973358 650.413635,368.334503 
	C651.241821,367.363617 653.260315,366.703003 654.548218,366.975250 
	C657.280273,367.552704 659.834961,368.917023 662.519226,369.782379 
	C673.936218,373.462830 683.965088,370.633331 693.386353,363.360138 
	C692.736389,362.509949 692.439331,361.869019 691.938965,361.517120 
	C690.718628,360.658783 689.445801,359.853943 688.120972,359.168823 
	C677.730347,353.795380 667.599792,354.941742 657.585327,360.331604 
	C655.210083,361.609985 652.305054,363.919922 650.268921,360.217529 
	C648.179810,356.418945 652.138367,355.655548 654.161072,354.022186 
	C654.416321,353.816101 654.739258,353.695038 655.026184,353.526642 
	C666.067566,347.046112 671.428833,334.067383 668.212402,321.380066 
	C655.691223,326.163300 648.313599,334.725494 647.554199,348.481720 
	C647.393066,351.401764 648.351318,355.969452 643.856384,355.862244 
	C639.650696,355.761963 640.398132,351.276978 640.125671,348.296875 
	C638.917908,335.084625 631.543396,326.145538 616.999634,321.827087 
	C618.015198,327.873962 618.512817,333.394257 619.932495,338.666168 
	C621.870422,345.862122 627.485352,350.146118 633.517456,353.972443 
	C635.844177,355.448334 639.907104,356.771851 637.620544,360.559235 
	C635.632629,363.852020 632.655396,361.491425 630.145630,360.287231 
	C627.897339,359.208588 625.655273,358.069153 623.306885,357.255432 
	C612.540527,353.524719 602.884521,355.750732 593.627502,362.749390 
	C599.168335,367.987091 605.176331,371.528046 612.222229,370.988647 
	C618.887085,370.478394 625.398254,368.169342 632.040588,367.018036 
	C633.848267,366.704712 635.885315,367.714874 637.817200,368.117645 
	C636.844971,369.890594 635.942688,371.708221 634.855835,373.407898 
	C634.550232,373.885681 633.697144,374.005646 633.105042,374.308960 
	C621.449829,380.279541 615.697144,392.489807 618.440186,405.847168 
	C629.985413,401.713104 637.652588,394.383301 639.757874,381.886810 
	C640.367493,378.268555 641.592957,374.754059 642.536133,371.192017 
	C643.291382,371.018677 644.046631,370.845306 644.801880,370.671967 
	C648.627441,385.219025 650.234070,401.321106 668.428955,406.418213 
	C669.561707,397.800476 669.146729,389.774933 663.670593,381.897308 
M451.785248,600.505493 
	C451.785248,618.942261 451.785248,637.378967 451.785248,656.538879 
	C465.010712,651.421204 477.677094,646.556458 490.287842,641.551575 
	C491.064484,641.243347 491.873901,639.831482 491.875244,638.931824 
	C491.900635,621.970276 491.887970,605.007385 491.663849,588.047729 
	C491.622009,584.882324 489.677948,582.998779 486.103485,583.036926 
	C476.459351,583.140015 466.813110,583.108154 457.168213,583.046692 
	C453.375366,583.022461 451.715973,584.823669 451.778870,588.533325 
	C451.840881,592.190735 451.787872,595.850037 451.785248,600.505493 
M422.726013,509.030823 
	C437.109497,509.030823 451.492981,509.030823 465.900665,509.030823 
	C466.448761,487.140045 460.241180,468.322601 446.844208,451.960785 
	C445.986542,450.913330 444.626373,449.597626 443.477234,449.575287 
	C433.717194,449.385437 423.951904,449.466766 413.921509,449.466766 
	C414.045715,450.953247 413.967224,451.790039 414.199188,452.529449 
	C419.634766,469.855438 421.212158,487.669586 421.051117,505.716766 
	C421.041626,506.782990 421.518127,507.853577 422.726013,509.030823 
M406.855194,733.499634 
	C406.838226,739.493958 406.736633,745.490112 406.870483,751.481079 
	C406.899902,752.796387 407.409515,754.864014 408.303467,755.278076 
	C416.612000,759.126648 425.052948,762.689270 434.048401,766.592041 
	C434.048401,738.077637 434.048401,710.978088 434.048401,683.079285 
	C425.885406,686.182129 418.209015,689.254150 410.412842,691.984131 
	C407.474487,693.013123 406.852142,694.692200 406.879272,697.533264 
	C406.990570,709.187561 406.882599,720.843994 406.855194,733.499634 
M560.057007,297.305756 
	C566.281372,294.577972 571.184143,297.025970 575.078308,301.685760 
	C578.513733,305.796539 581.375427,303.186951 584.102112,301.306793 
	C587.243225,299.140930 585.049988,296.468292 583.409973,295.016022 
	C579.656799,291.692444 575.416626,288.918762 570.834778,285.521881 
	C570.616272,282.896332 571.059021,278.337097 566.004761,278.162384 
	C560.702698,277.979095 561.208618,282.986725 560.687073,285.554901 
	C556.596252,287.672577 552.875488,288.933868 549.969482,291.227509 
	C541.196838,298.151489 542.350891,311.497894 552.230042,316.707703 
	C555.657654,318.515289 559.809021,318.949738 563.628967,320.014435 
	C566.172058,320.723236 568.946106,321.010010 571.206726,322.239563 
	C575.708862,324.688171 575.499329,330.372009 570.822205,332.449554 
	C568.655701,333.411865 565.673645,334.180542 563.636230,333.444885 
	C559.553406,331.970734 555.588623,329.773682 552.098816,327.172363 
	C549.020081,324.877441 546.557617,325.563660 543.979248,327.302765 
	C541.148010,329.212494 542.843201,331.343719 544.059204,333.320709 
	C547.917725,339.594177 553.624207,343.182037 560.661621,344.348572 
	C561.513428,348.024597 559.216858,353.177246 565.414673,353.354218 
	C572.610229,353.559692 569.149414,347.446777 570.566162,344.115479 
	C571.143066,343.906067 571.755188,343.651001 572.386597,343.459625 
	C581.118164,340.814148 585.883179,335.043640 585.844849,327.146942 
	C585.807739,319.511627 581.227478,314.194611 572.220337,311.575439 
	C568.873474,310.602234 565.281433,310.316315 562.093445,309.005951 
	C559.840637,308.080017 556.943970,306.252350 556.432678,304.282654 
	C555.962402,302.471008 558.295288,299.931732 560.057007,297.305756 
M412.017456,672.737000 
	C418.348663,670.209290 424.729889,667.795654 430.970917,665.062134 
	C432.293854,664.482666 433.983612,662.755432 434.012573,661.522034 
	C434.235229,652.035095 434.106262,642.539307 434.049164,633.046570 
	C434.030884,630.008179 432.585968,628.590698 429.385223,628.647644 
	C423.393219,628.754211 417.395935,628.632202 411.402008,628.533752 
	C408.498871,628.486145 406.973938,629.886780 406.964417,632.700867 
	C406.917938,646.444702 406.943359,660.188721 406.943359,674.353455 
	C408.772736,673.774231 410.007050,673.383362 412.017456,672.737000 
M388.791565,654.720947 
	C388.164001,654.192505 387.549347,653.222351 386.906860,653.203613 
	C379.933685,652.999573 372.947388,652.746704 365.988770,653.053345 
	C364.886505,653.101929 363.175629,655.779541 363.007202,657.374817 
	C362.572479,661.491577 362.837463,665.682861 362.834534,669.844421 
	C362.829498,677.044922 362.833160,684.245361 362.833160,692.050232 
	C372.410248,688.380859 381.055878,685.068359 389.203400,681.946655 
	C389.203400,672.765198 389.203400,664.127502 388.791565,654.720947 
M362.861542,722.347534 
	C363.307281,724.658630 362.936859,728.027588 364.334015,729.105530 
	C372.165283,735.147339 380.423035,740.636292 389.421692,746.934509 
	C389.421692,731.151550 389.421692,716.643127 389.421692,701.615662 
	C380.407257,704.934875 371.611786,708.173401 362.861206,711.395447 
	C362.861206,715.080261 362.861206,718.240540 362.861542,722.347534 
M345.035583,698.493164 
	C345.018707,692.166199 344.990906,685.839233 344.989136,679.512268 
	C344.988098,675.764709 343.790100,673.695374 339.392548,673.933105 
	C332.918671,674.283081 326.396393,673.759094 319.926025,674.139465 
	C317.997955,674.252747 315.738251,675.800659 314.486694,677.372925 
	C313.857269,678.163513 314.659180,680.903381 315.644775,682.043091 
	C324.339966,692.098267 333.211578,702.001160 342.069641,711.914490 
	C342.742584,712.667603 343.711700,713.156067 345.036499,714.130310 
	C345.036499,708.766907 345.036499,704.128052 345.035583,698.493164 
M418.733002,534.980042 
	C417.168976,542.045166 415.604950,549.110352 413.935822,556.650146 
	C430.282745,550.350769 442.712158,540.210815 451.896820,524.762634 
	C440.845886,524.762634 430.763916,524.762634 420.224945,524.762634 
	C419.769562,527.952087 419.328369,531.042236 418.733002,534.980042 
M404.703827,416.967926 
	C403.448914,416.410461 402.194000,415.853027 400.131714,414.936920 
	C402.850464,421.223419 405.129974,426.667328 407.601410,432.022675 
	C407.973541,432.829010 409.228149,433.701996 410.098267,433.727203 
	C415.481964,433.883301 420.872437,433.805664 426.260681,433.805664 
	C426.527618,433.235962 426.794525,432.666260 427.061462,432.096558 
	C419.824127,427.154572 412.586761,422.212585 404.703827,416.967926 
M392.512115,560.442810 
	C392.512115,560.442810 392.563721,560.532898 392.512115,560.442810 
z"/>
<path fill="#F4F2F3" opacity="1.000000" stroke="none" 
	d="
M377.052429,352.957489 
	C371.521545,349.906952 366.314789,347.033936 361.156830,344.187836 
	C361.298157,343.622986 361.297913,343.273346 361.458984,343.030884 
	C366.713470,335.120758 373.845062,333.909210 382.625061,336.293488 
	C388.359344,337.850677 394.439636,338.192749 400.389954,338.853546 
	C401.862671,339.017090 404.003113,338.838867 404.872009,337.912750 
	C416.707153,325.298004 428.372559,312.524017 439.565369,300.348877 
	C408.264313,293.065521 374.523071,285.214386 339.463287,277.056396 
	C347.551819,270.137695 352.165863,259.937561 364.324463,262.128845 
	C370.937408,263.320618 375.829987,261.295807 379.711548,255.942474 
	C382.246399,252.446457 385.107025,249.186630 387.821716,245.821014 
	C388.588715,246.059677 389.355743,246.298325 390.122742,246.536987 
	C392.157684,249.533829 395.894043,252.625076 395.734558,255.500153 
	C395.584137,258.210876 391.331512,260.694000 388.481567,263.701416 
	C394.194336,264.032104 399.599670,264.464050 405.010651,264.552887 
	C406.033173,264.569702 407.207581,263.353729 408.090637,262.482300 
	C412.236420,258.391296 416.368286,254.282043 420.375763,250.056641 
	C422.553070,247.760941 424.679565,247.274475 426.480865,250.091019 
	C428.108459,252.636002 433.039734,254.530167 428.838013,258.670380 
	C426.604218,260.871429 424.206940,262.906525 421.115906,265.713562 
	C427.202332,266.362396 432.504333,267.030731 437.827209,267.385071 
	C438.635468,267.438873 439.602905,266.096039 440.390656,265.294922 
	C444.241882,261.378296 448.185638,257.541351 451.845276,253.451279 
	C454.883240,250.056030 456.969482,251.896957 459.206421,254.255554 
	C461.315216,256.479065 463.749512,258.515869 460.270203,261.653412 
	C457.953491,263.742584 455.923401,266.149658 453.505585,268.686737 
	C460.994019,269.425629 468.312988,270.295044 475.657654,270.733429 
	C476.941711,270.810028 478.492126,269.241577 479.651611,268.148682 
	C490.434357,257.985199 501.097290,247.694061 511.924835,237.578873 
	C517.496582,232.373688 524.343689,229.854279 531.911499,229.708023 
	C538.426025,229.582108 542.354553,233.960068 540.277283,240.055984 
	C538.286377,245.898453 535.647461,252.122360 531.524475,256.520355 
	C520.263672,268.532227 508.008057,279.607330 496.320953,291.228912 
	C494.793152,292.748108 493.587433,295.247040 493.442413,297.374695 
	C493.049500,303.138977 493.307739,308.947662 493.307739,316.368225 
	C497.311005,312.647034 500.192017,310.064178 502.958405,307.363861 
	C504.775879,305.589752 506.816406,304.705597 508.379272,307.111450 
	C509.862152,309.394165 514.266113,311.181152 510.800903,314.946289 
	C506.744202,319.354187 502.796234,323.933990 498.259979,327.805023 
	C494.912994,330.661163 493.228790,333.533051 493.799957,337.937531 
	C494.151733,340.650299 493.865112,343.445862 493.865112,347.299438 
	C498.343903,343.359436 501.882477,340.246552 505.897339,336.714691 
	C508.101562,339.559448 510.084717,342.118927 512.415405,345.126892 
	C507.722321,350.082458 503.537903,355.051300 498.759460,359.361603 
	C495.324829,362.459717 493.025238,365.431152 494.028900,370.313782 
	C494.443146,372.329132 494.097504,374.500641 494.097504,377.772095 
	C498.665039,373.990601 502.294647,370.985657 506.322815,367.650696 
	C507.837799,369.372955 509.143524,371.016968 510.617188,372.493439 
	C512.589294,374.469391 512.337524,376.078857 510.396545,377.976135 
	C505.874268,382.396545 501.374512,386.855133 497.141205,391.546906 
	C495.857635,392.969482 494.895233,395.174500 494.791779,397.075867 
	C494.493622,402.556976 494.314545,408.103180 494.828674,413.554016 
	C495.385651,419.458771 493.251495,423.745575 489.096985,427.653625 
	C486.972443,429.652100 485.556366,432.403778 483.820129,434.815033 
	C483.232605,434.357697 482.645111,433.900360 482.057617,433.443024 
	C474.233063,397.750031 466.408539,362.057007 458.386719,325.464081 
	C456.905640,326.672882 455.677277,327.547211 454.596985,328.576904 
	C443.747467,338.918121 432.860199,349.221680 422.172241,359.727783 
	C420.897522,360.980804 420.088104,363.414978 420.194122,365.235779 
	C420.551422,371.371307 421.517090,377.468262 422.069122,383.596283 
	C422.917297,393.011536 422.688202,393.363495 414.195099,399.388245 
	C412.948822,396.881531 411.731873,394.440582 410.520996,391.996613 
	C408.750061,388.422394 406.598724,384.981445 405.283691,381.246338 
	C400.408722,367.399902 391.361877,357.857361 377.052429,352.957489 
z"/>
<path fill="#F4F3F3" opacity="1.000000" stroke="none" 
	d="
M377.021942,559.392090 
	C369.312927,559.337280 361.603882,559.282471 352.977112,559.245605 
	C341.713959,559.329956 331.368591,559.396423 321.023224,559.462891 
	C318.337250,559.394043 315.651306,559.325195 312.198456,559.275757 
	C295.907043,559.390076 280.382477,559.484924 264.857941,559.579834 
	C263.947205,558.677002 262.328644,557.846375 262.228180,556.860962 
	C258.788757,523.123962 258.991821,489.672363 270.672943,457.209229 
	C273.410034,449.602539 273.411469,449.610382 281.310486,449.590668 
	C318.954773,449.496826 356.599518,449.463043 394.242615,449.197540 
	C397.807709,449.172363 398.314819,451.073883 398.978821,453.529297 
	C404.558868,474.164001 406.059784,495.232758 404.416718,516.410522 
	C403.468353,528.633850 400.762878,540.714844 399.038513,552.886841 
	C398.327911,557.903137 395.984253,560.213379 389.954437,559.159058 
	C385.052734,559.248352 381.037354,559.320251 377.021942,559.392090 
M275.609894,529.596069 
	C275.899353,533.980530 278.046021,536.128052 282.634613,536.122742 
	C314.438568,536.085938 346.242645,536.144043 378.046661,536.191895 
	C382.014618,536.197876 384.904419,534.816101 385.500854,530.530151 
	C385.983704,527.060242 383.060455,523.712158 378.962433,523.039917 
	C377.499786,522.799988 375.973511,522.923584 374.476227,522.922302 
	C347.667480,522.898804 320.858765,522.881531 294.050018,522.863159 
	C292.434418,522.862061 290.818817,522.863037 288.776367,522.863037 
	C288.776367,520.564209 288.789459,518.770874 288.774109,516.977722 
	C288.698547,508.153595 288.717926,499.326874 288.488586,490.506653 
	C288.385651,486.548035 286.389465,483.842743 282.073486,483.763550 
	C278.060333,483.689880 276.119049,486.224396 275.269501,489.784729 
	C275.043152,490.733337 275.182037,491.774323 275.189301,492.772644 
	C275.276764,504.759979 275.371002,516.747253 275.609894,529.596069 
M380.570221,473.845337 
	C376.607574,470.633453 373.242767,472.145355 369.918365,475.054260 
	C362.669037,481.397705 355.349182,487.660614 348.040619,493.971527 
	C342.278992,489.988098 336.982117,485.966980 331.299164,482.596863 
	C329.381256,481.459534 325.645782,480.835419 324.174957,481.920502 
	C316.153137,487.838440 308.461060,494.226440 300.908722,500.746002 
	C297.940186,503.308594 298.527374,506.416809 301.593689,508.825500 
	C305.139038,511.610443 308.612335,511.252991 312.035492,508.455261 
	C317.278595,504.170044 322.577118,499.952698 327.855621,495.703705 
	C332.984131,499.308167 337.731873,502.660736 342.496185,505.989594 
	C348.601288,510.255249 350.547180,510.340302 356.068329,505.471558 
	C364.182892,498.315735 372.049591,490.879608 380.076660,483.623444 
	C383.213226,480.788086 383.705811,477.819794 380.570221,473.845337 
z"/>
<path fill="#F5F3F3" opacity="1.000000" stroke="none" 
	d="
M686.815674,569.813538 
	C672.758911,592.819153 658.861328,615.495300 644.391113,639.105835 
	C644.232605,636.952820 644.069641,635.775085 644.070007,634.597412 
	C644.089722,573.798950 644.122925,513.000488 644.157349,452.202057 
	C644.158447,450.203522 644.215820,448.204681 644.196899,446.206482 
	C644.157898,442.088623 646.174500,440.076721 650.291321,440.080963 
	C663.117493,440.094238 675.943787,440.119904 688.769775,440.064667 
	C692.892273,440.046906 695.026550,441.946594 695.030884,446.051971 
	C695.053406,467.181732 695.041382,488.311462 695.041382,509.954529 
	C689.416199,509.954529 683.986328,509.947083 678.556519,509.956482 
	C672.477966,509.967010 668.222900,513.212097 668.271973,517.781982 
	C668.319397,522.196167 672.813293,526.207153 678.205139,526.472290 
	C681.029053,526.611145 683.866394,526.474976 686.697632,526.469727 
	C689.337158,526.464783 691.976685,526.468628 694.853760,526.468628 
	C694.853760,539.107300 694.853760,551.362915 694.853760,563.832458 
	C688.871643,561.113892 689.571838,567.504578 686.815674,569.813538 
z"/>
<path fill="#F4F3F3" opacity="1.000000" stroke="none" 
	d="
M576.152954,580.999878 
	C576.212219,553.175903 576.250305,525.851807 576.343201,498.527924 
	C576.372681,489.857697 576.104614,487.252563 586.900146,487.799774 
	C598.034180,488.364227 609.221069,488.032135 620.381226,487.859344 
	C624.429138,487.796722 626.157959,489.286621 626.160095,493.364471 
	C626.186890,544.346436 626.276733,595.328430 626.337769,646.310364 
	C626.338318,646.786865 626.168945,647.263550 625.963684,648.350769 
	C622.019409,646.195618 618.279846,644.166870 614.553772,642.113770 
	C602.895935,635.689941 591.272400,629.202637 579.564819,622.870728 
	C577.060303,621.516235 576.105347,619.917114 576.146912,616.986328 
	C576.314819,605.159912 576.177551,593.329102 576.152954,580.999878 
z"/>
<path fill="#F2F1F0" opacity="1.000000" stroke="none" 
	d="
M558.925903,688.018127 
	C558.842041,689.405090 558.758179,690.792114 558.695618,693.032715 
	C558.782532,697.598083 558.848145,701.309937 558.913818,705.021729 
	C558.824219,707.388794 558.734619,709.755859 558.666443,713.007385 
	C558.763672,718.934814 558.839478,723.977783 558.915283,729.020752 
	C558.915283,743.481445 558.915283,757.942139 558.915283,772.766113 
	C542.596497,777.077637 526.293152,778.005371 509.581604,778.252441 
	C509.486359,776.321045 509.352112,774.856323 509.350952,773.391541 
	C509.320587,734.591919 509.337708,695.792236 509.223022,656.992920 
	C509.213501,653.767090 509.935364,651.974182 513.243835,650.749634 
	C528.175354,645.223389 542.990540,639.382629 558.676392,633.335693 
	C558.676392,648.670593 558.676392,663.373230 558.698975,678.971558 
	C558.789673,682.584167 558.857788,685.301147 558.925903,688.018127 
z"/>
<path fill="#F4F3F3" opacity="1.000000" stroke="none" 
	d="
M576.120972,737.968933 
	C576.218445,720.839294 576.329224,703.709778 576.408936,686.580078 
	C576.469299,673.599854 576.480103,660.619507 576.541321,647.639343 
	C576.548828,646.041870 576.731079,644.445129 576.886230,641.999329 
	C582.963196,645.222351 588.351135,648.034973 593.697205,650.924988 
	C603.340271,656.137939 613.010986,661.304626 622.535645,666.726990 
	C624.143494,667.642273 625.076477,669.742981 626.339722,672.112000 
	C626.455078,686.609741 626.551941,700.291504 626.648804,713.973267 
	C626.572632,723.662720 626.496460,733.352173 626.445068,743.887085 
	C626.550537,745.850708 626.631226,746.968872 626.711853,748.086975 
	C626.108826,749.007629 625.720520,750.370850 624.870850,750.783020 
	C609.750488,758.118347 594.269836,764.503235 577.741699,767.991943 
	C577.456177,768.052185 577.113403,767.841064 576.372498,767.642944 
	C576.372498,765.461975 576.372498,763.167358 576.352966,760.053223 
	C576.263428,758.145447 576.193359,757.057190 576.123352,755.968933 
	C576.214966,754.588074 576.306580,753.207153 576.375366,750.975159 
	C576.275269,746.072327 576.198120,742.020630 576.120972,737.968933 
z"/>
<path fill="#F4F3F3" opacity="1.000000" stroke="none" 
	d="
M352.246460,618.259766 
	C334.027771,630.971619 314.431244,639.689514 293.030487,644.203308 
	C291.751099,644.473083 289.359619,643.779236 288.863800,642.820740 
	C278.183685,622.176331 270.819519,600.339417 265.955963,577.638000 
	C265.820374,577.005066 265.938843,576.317688 265.938843,575.291504 
	C307.287384,575.291504 348.606049,575.291504 390.551392,575.291504 
	C381.073029,592.618530 368.416931,606.740601 352.246460,618.259766 
M322.498901,604.781006 
	C327.664490,604.774231 332.838470,604.936768 337.991821,604.682129 
	C340.229004,604.571533 343.131348,604.265198 344.454498,602.852051 
	C346.024689,601.174988 347.205566,598.019531 346.786621,595.845642 
	C346.096191,592.262939 342.854675,590.777832 339.127930,590.782593 
	C324.631561,590.801025 310.135162,590.781555 295.638794,590.790161 
	C290.347046,590.793274 287.064240,593.445068 287.047333,597.680542 
	C287.029785,602.069946 290.163330,604.698120 295.505981,604.719421 
	C304.170319,604.753967 312.834839,604.760864 322.498901,604.781006 
z"/>
<path fill="#F4F3F3" opacity="1.000000" stroke="none" 
	d="
M713.039551,674.076416 
	C713.008606,624.873047 713.008606,576.087830 713.008606,526.993774 
	C728.446228,526.993774 743.508423,526.993774 758.917786,526.993774 
	C759.332825,542.534119 758.229675,558.022339 755.570984,573.475281 
	C749.580200,608.294983 735.912415,639.973694 717.014709,669.577148 
	C715.890625,671.338074 714.393860,672.861023 713.039551,674.076416 
z"/>
<path fill="#F5F4F5" opacity="1.000000" stroke="none" 
	d="
M695.144348,634.000122 
	C695.126282,654.165405 694.972534,673.832336 695.202148,693.494751 
	C695.250122,697.608704 693.923157,700.171631 690.839844,702.705750 
	C677.355042,713.788635 664.083618,725.130798 650.663025,736.292603 
	C648.821838,737.823914 646.577637,738.870544 644.067383,740.421204 
	C644.067383,719.668518 644.208313,699.711609 643.976074,679.759094 
	C643.911682,674.227234 645.101562,669.521301 648.059631,664.788452 
	C663.392944,640.255310 678.460876,615.556335 693.629456,590.920166 
	C693.860107,590.545593 694.195923,590.235718 695.144958,589.110413 
	C695.144958,604.477051 695.144958,618.988586 695.144348,634.000122 
z"/>
<path fill="#F1F0F0" opacity="1.000000" stroke="none" 
	d="
M559.135376,612.988464 
	C558.179138,613.776611 557.344666,614.870728 556.248413,615.306702 
	C541.284424,621.257996 526.285461,627.121582 511.286072,632.983398 
	C510.865448,633.147766 510.343506,633.052979 509.501038,633.099243 
	C509.425812,632.242920 509.302185,631.483826 509.300629,630.724548 
	C509.239471,600.773987 509.177124,570.823425 509.146912,540.872864 
	C509.139801,533.803528 510.506378,532.386902 517.561035,532.350159 
	C529.041565,532.290466 540.526917,532.197510 551.999878,532.504211 
	C554.064087,532.559387 556.078735,534.471375 558.233521,536.091309 
	C558.456909,536.798584 558.563049,536.940674 558.669189,537.082825 
	C558.712463,561.755371 558.755798,586.427856 558.883789,611.803589 
	C559.024109,612.667358 559.079773,612.827942 559.135376,612.988464 
z"/>
<path fill="#F5F3F4" opacity="1.000000" stroke="none" 
	d="
M466.345947,669.223511 
	C474.975708,666.180420 483.237976,663.271484 491.920776,660.214478 
	C491.920776,699.494141 491.920776,738.053345 491.920776,777.965027 
	C478.606171,776.055969 465.551605,774.184204 452.133301,772.260315 
	C451.999969,770.268250 451.820099,768.836060 451.820587,767.403809 
	C451.830811,738.103088 451.919922,708.802124 451.811615,679.501953 
	C451.798645,675.993286 452.552521,674.033508 456.232727,673.131104 
	C459.587982,672.308350 462.738007,670.648560 466.345947,669.223511 
z"/>
<path fill="#F2F1F1" opacity="1.000000" stroke="none" 
	d="
M289.988770,412.973969 
	C299.444061,396.124390 311.255249,381.568085 324.672607,368.244446 
	C326.500122,366.429718 327.948456,365.469360 330.621368,366.951569 
	C357.897980,382.077148 379.405548,402.592377 391.717804,431.791840 
	C391.892090,432.205078 391.826416,432.719513 391.904419,433.506165 
	C354.576233,433.506165 317.406281,433.506165 278.968628,433.506165 
	C282.844513,426.290710 286.333893,419.794708 289.988770,412.973969 
M321.205597,418.536224 
	C323.208344,419.295746 325.161865,420.506866 327.222870,420.731415 
	C333.816254,421.449860 339.404816,419.387177 343.137299,413.612305 
	C346.732117,408.050446 345.977264,402.429504 342.472290,397.239838 
	C339.023621,392.133453 333.972015,389.821228 327.794800,390.924957 
	C321.757019,392.003754 317.423859,395.542084 315.590698,401.414001 
	C313.554596,407.936127 315.574432,413.524139 321.205597,418.536224 
z"/>
<path fill="#F2F1F0" opacity="1.000000" stroke="none" 
	d="
M563.658020,384.231689 
	C562.631958,392.657227 563.981750,397.536163 573.426086,400.765442 
	C589.069946,406.114532 596.626282,422.145844 595.016113,440.174652 
	C593.706970,454.832977 582.534668,467.110168 567.114929,471.116302 
	C565.722107,471.478180 563.750977,472.963165 563.597534,474.130249 
	C563.101196,477.904968 561.846558,480.982635 557.687073,480.649078 
	C553.377991,480.303497 552.862183,476.771759 553.167053,473.149902 
	C553.207092,472.673889 553.060303,472.182129 553.003479,471.724823 
	C531.875610,465.478516 521.590942,454.265045 520.935059,436.812531 
	C520.188843,416.956451 529.030273,405.792236 553.053101,396.633942 
	C553.053101,392.329834 553.069580,387.857941 553.048157,383.386230 
	C553.029053,379.410522 552.984131,375.317352 558.390564,374.932770 
	C562.300354,374.654633 563.788391,377.325287 563.658020,384.231689 
M546.233826,455.270386 
	C550.009949,457.443542 553.343689,461.455170 558.457336,457.872009 
	C559.037048,457.465729 560.558899,458.368561 561.629578,458.709564 
	C562.489502,458.983398 563.378357,459.688019 564.166992,459.577637 
	C568.634094,458.952423 574.844177,452.155945 575.545593,447.328552 
	C576.352051,441.778931 573.550659,436.169312 568.200989,433.860474 
	C564.415527,432.226715 560.143677,431.690063 556.421326,429.951904 
	C554.533691,429.070404 553.381226,426.614288 551.896423,424.870056 
	C553.957703,423.281342 555.911926,420.614197 558.109253,420.396088 
	C560.481262,420.160675 563.435730,421.759766 565.503235,423.370819 
	C569.237915,426.281158 571.681396,424.410645 574.040894,421.813293 
	C576.689636,418.897400 573.978760,417.390686 572.119690,415.840485 
	C569.332458,413.516357 566.452393,411.303528 563.596130,409.030914 
	C560.482605,413.898407 560.107361,413.895050 555.363342,410.386078 
	C554.734802,409.921204 553.101624,410.056702 552.415588,410.564819 
	C550.027893,412.333221 547.792664,414.323669 545.608032,416.346954 
	C541.044861,420.573212 540.140381,427.124847 544.167664,431.536591 
	C546.528015,434.122192 549.892456,435.943237 553.078064,437.575989 
	C555.701172,438.920441 559.013550,439.018280 561.474609,440.547302 
	C563.212891,441.627258 564.525635,444.066467 564.991943,446.132782 
	C565.143250,446.803375 561.788696,449.337158 560.427734,449.065430 
	C557.053101,448.391693 553.540222,447.099518 550.757629,445.111359 
	C547.445557,442.744873 544.340576,443.278168 542.312500,445.594879 
	C541.287415,446.765869 542.560120,450.176910 543.194946,452.463837 
	C543.462402,453.427338 544.765625,454.103363 546.233826,455.270386 
z"/>
<path fill="#F3F3F2" opacity="1.000000" stroke="none" 
	d="
M713.183838,480.000000 
	C713.182861,461.843018 713.125000,444.185760 713.204407,426.529144 
	C713.237976,419.066406 714.471069,417.994873 721.967651,417.976105 
	C735.845703,417.941376 736.087891,417.842804 741.336609,430.737823 
	C751.058899,454.623535 757.154114,479.421692 758.996582,505.199799 
	C759.100647,506.655701 759.010071,508.125549 759.010071,509.867737 
	C743.773926,509.867737 728.698547,509.867737 713.182434,509.867737 
	C713.182434,500.042053 713.182434,490.271027 713.183838,480.000000 
z"/>
<path fill="#F2F2F2" opacity="1.000000" stroke="none" 
	d="
M663.873413,382.200684 
	C669.146729,389.774933 669.561707,397.800476 668.428955,406.418213 
	C650.234070,401.321106 648.627441,385.219025 644.801880,370.671967 
	C644.046631,370.845306 643.291382,371.018677 642.536133,371.192017 
	C641.592957,374.754059 640.367493,378.268555 639.757874,381.886810 
	C637.652588,394.383301 629.985413,401.713104 618.440186,405.847168 
	C615.697144,392.489807 621.449829,380.279541 633.105042,374.308960 
	C633.697144,374.005646 634.550232,373.885681 634.855835,373.407898 
	C635.942688,371.708221 636.844971,369.890594 637.817139,368.117615 
	C635.885315,367.714874 633.848267,366.704712 632.040588,367.018036 
	C625.398254,368.169342 618.887085,370.478394 612.222229,370.988647 
	C605.176331,371.528046 599.168335,367.987091 593.627502,362.749390 
	C602.884521,355.750732 612.540527,353.524719 623.306885,357.255432 
	C625.655273,358.069153 627.897339,359.208588 630.145630,360.287231 
	C632.655396,361.491425 635.632629,363.852020 637.620544,360.559235 
	C639.907104,356.771851 635.844177,355.448334 633.517456,353.972443 
	C627.485352,350.146118 621.870422,345.862122 619.932495,338.666168 
	C618.512817,333.394257 618.015198,327.873962 616.999634,321.827087 
	C631.543396,326.145538 638.917908,335.084625 640.125671,348.296875 
	C640.398132,351.276978 639.650696,355.761963 643.856384,355.862244 
	C648.351318,355.969452 647.393066,351.401764 647.554199,348.481720 
	C648.313599,334.725494 655.691223,326.163300 668.212402,321.380066 
	C671.428833,334.067383 666.067566,347.046112 655.026184,353.526642 
	C654.739258,353.695038 654.416321,353.816101 654.161072,354.022186 
	C652.138367,355.655548 648.179810,356.418945 650.268921,360.217529 
	C652.305054,363.919922 655.210083,361.609985 657.585327,360.331604 
	C667.599792,354.941742 677.730347,353.795380 688.120972,359.168823 
	C689.445801,359.853943 690.718628,360.658783 691.938965,361.517120 
	C692.439331,361.869019 692.736389,362.509949 693.386353,363.360138 
	C683.965088,370.633331 673.936218,373.462830 662.519226,369.782379 
	C659.834961,368.917023 657.280273,367.552704 654.548218,366.975250 
	C653.260315,366.703003 651.241821,367.363617 650.413635,368.334503 
	C649.868652,368.973358 650.484131,371.207916 651.254395,372.209229 
	C652.213379,373.456085 653.912659,374.110168 655.211182,375.124146 
	C658.058105,377.347107 660.853943,379.635559 663.873413,382.200684 
z"/>
<path fill="#F3F3F2" opacity="1.000000" stroke="none" 
	d="
M451.785278,600.007019 
	C451.787872,595.850037 451.840881,592.190735 451.778870,588.533325 
	C451.715973,584.823669 453.375366,583.022461 457.168213,583.046692 
	C466.813110,583.108154 476.459351,583.140015 486.103485,583.036926 
	C489.677948,582.998779 491.622009,584.882324 491.663849,588.047729 
	C491.887970,605.007385 491.900635,621.970276 491.875244,638.931824 
	C491.873901,639.831482 491.064484,641.243347 490.287842,641.551575 
	C477.677094,646.556458 465.010712,651.421204 451.785248,656.538879 
	C451.785248,637.378967 451.785248,618.942261 451.785278,600.007019 
z"/>
<path fill="#F4F3F2" opacity="1.000000" stroke="none" 
	d="
M422.247253,508.976471 
	C421.518127,507.853577 421.041626,506.782990 421.051117,505.716766 
	C421.212158,487.669586 419.634766,469.855438 414.199188,452.529449 
	C413.967224,451.790039 414.045715,450.953247 413.921509,449.466766 
	C423.951904,449.466766 433.717194,449.385437 443.477234,449.575287 
	C444.626373,449.597626 445.986542,450.913330 446.844208,451.960785 
	C460.241180,468.322601 466.448761,487.140045 465.900665,509.030823 
	C451.492981,509.030823 437.109497,509.030823 422.247253,508.976471 
z"/>
<path fill="#F5F5F4" opacity="1.000000" stroke="none" 
	d="
M406.855225,732.999634 
	C406.882599,720.843994 406.990570,709.187561 406.879272,697.533264 
	C406.852142,694.692200 407.474487,693.013123 410.412842,691.984131 
	C418.209015,689.254150 425.885406,686.182129 434.048401,683.079285 
	C434.048401,710.978088 434.048401,738.077637 434.048401,766.592041 
	C425.052948,762.689270 416.612000,759.126648 408.303467,755.278076 
	C407.409515,754.864014 406.899902,752.796387 406.870483,751.481079 
	C406.736633,745.490112 406.838226,739.493958 406.855225,732.999634 
z"/>
<path fill="#F0F0EF" opacity="1.000000" stroke="none" 
	d="
M559.725159,297.509369 
	C558.295288,299.931732 555.962402,302.471008 556.432678,304.282654 
	C556.943970,306.252350 559.840637,308.080017 562.093445,309.005951 
	C565.281433,310.316315 568.873474,310.602234 572.220337,311.575439 
	C581.227478,314.194611 585.807739,319.511627 585.844849,327.146942 
	C585.883179,335.043640 581.118164,340.814148 572.386597,343.459625 
	C571.755188,343.651001 571.143066,343.906067 570.566162,344.115479 
	C569.149414,347.446777 572.610229,353.559692 565.414673,353.354218 
	C559.216858,353.177246 561.513428,348.024597 560.661621,344.348572 
	C553.624207,343.182037 547.917725,339.594177 544.059204,333.320709 
	C542.843201,331.343719 541.148010,329.212494 543.979248,327.302765 
	C546.557617,325.563660 549.020081,324.877441 552.098816,327.172363 
	C555.588623,329.773682 559.553406,331.970734 563.636230,333.444885 
	C565.673645,334.180542 568.655701,333.411865 570.822205,332.449554 
	C575.499329,330.372009 575.708862,324.688171 571.206726,322.239563 
	C568.946106,321.010010 566.172058,320.723236 563.628967,320.014435 
	C559.809021,318.949738 555.657654,318.515289 552.230042,316.707703 
	C542.350891,311.497894 541.196838,298.151489 549.969482,291.227509 
	C552.875488,288.933868 556.596252,287.672577 560.687073,285.554901 
	C561.208618,282.986725 560.702698,277.979095 566.004761,278.162384 
	C571.059021,278.337097 570.616272,282.896332 570.834778,285.521881 
	C575.416626,288.918762 579.656799,291.692444 583.409973,295.016022 
	C585.049988,296.468292 587.243225,299.140930 584.102112,301.306793 
	C581.375427,303.186951 578.513733,305.796539 575.078308,301.685760 
	C571.184143,297.025970 566.281372,294.577972 559.725159,297.509369 
z"/>
<path fill="#F4F3F2" opacity="1.000000" stroke="none" 
	d="
M411.629425,672.864746 
	C410.007050,673.383362 408.772736,673.774231 406.943359,674.353455 
	C406.943359,660.188721 406.917938,646.444702 406.964417,632.700867 
	C406.973938,629.886780 408.498871,628.486145 411.402008,628.533752 
	C417.395935,628.632202 423.393219,628.754211 429.385223,628.647644 
	C432.585968,628.590698 434.030884,630.008179 434.049164,633.046570 
	C434.106262,642.539307 434.235229,652.035095 434.012573,661.522034 
	C433.983612,662.755432 432.293854,664.482666 430.970917,665.062134 
	C424.729889,667.795654 418.348663,670.209290 411.629425,672.864746 
z"/>
<path fill="#F2F1F1" opacity="1.000000" stroke="none" 
	d="
M388.997498,655.105408 
	C389.203400,664.127502 389.203400,672.765198 389.203400,681.946655 
	C381.055878,685.068359 372.410248,688.380859 362.833160,692.050232 
	C362.833160,684.245361 362.829498,677.044922 362.834534,669.844421 
	C362.837463,665.682861 362.572479,661.491577 363.007202,657.374817 
	C363.175629,655.779541 364.886505,653.101929 365.988770,653.053345 
	C372.947388,652.746704 379.933685,652.999573 386.906860,653.203613 
	C387.549347,653.222351 388.164001,654.192505 388.997498,655.105408 
z"/>
<path fill="#F1F0F0" opacity="1.000000" stroke="none" 
	d="
M362.861389,721.874146 
	C362.861206,718.240540 362.861206,715.080261 362.861206,711.395447 
	C371.611786,708.173401 380.407257,704.934875 389.421692,701.615662 
	C389.421692,716.643127 389.421692,731.151550 389.421692,746.934509 
	C380.423035,740.636292 372.165283,735.147339 364.334015,729.105530 
	C362.936859,728.027588 363.307281,724.658630 362.861389,721.874146 
z"/>
<path fill="#F5F3F4" opacity="1.000000" stroke="none" 
	d="
M345.036041,698.991150 
	C345.036499,704.128052 345.036499,708.766907 345.036499,714.130310 
	C343.711700,713.156067 342.742584,712.667603 342.069641,711.914490 
	C333.211578,702.001160 324.339966,692.098267 315.644775,682.043091 
	C314.659180,680.903381 313.857269,678.163513 314.486694,677.372925 
	C315.738251,675.800659 317.997955,674.252747 319.926025,674.139465 
	C326.396393,673.759094 332.918671,674.283081 339.392548,673.933105 
	C343.790100,673.695374 344.988098,675.764709 344.989136,679.512268 
	C344.990906,685.839233 345.018707,692.166199 345.036041,698.991150 
z"/>
<path fill="#F0F0EF" opacity="1.000000" stroke="none" 
	d="
M418.810059,534.556213 
	C419.328369,531.042236 419.769562,527.952087 420.224945,524.762634 
	C430.763916,524.762634 440.845886,524.762634 451.896820,524.762634 
	C442.712158,540.210815 430.282745,550.350769 413.935822,556.650146 
	C415.604950,549.110352 417.168976,542.045166 418.810059,534.556213 
z"/>
<path fill="#F0F0EF" opacity="1.000000" stroke="none" 
	d="
M405.026611,417.119263 
	C412.586761,422.212585 419.824127,427.154572 427.061462,432.096558 
	C426.794525,432.666260 426.527618,433.235962 426.260681,433.805664 
	C420.872437,433.805664 415.481964,433.883301 410.098267,433.727203 
	C409.228149,433.701996 407.973541,432.829010 407.601410,432.022675 
	C405.129974,426.667328 402.850464,421.223419 400.131714,414.936920 
	C402.194000,415.853027 403.448914,416.410461 405.026611,417.119263 
z"/>
<path fill="#020001" opacity="1.000000" stroke="none" 
	d="
M265.121338,559.934570 
	C280.382477,559.484924 295.907043,559.390076 311.800446,559.386475 
	C311.041504,559.981323 309.916473,560.915344 308.785431,560.922791 
	C294.924957,561.013428 281.063568,560.976746 267.202545,560.930054 
	C266.595886,560.928040 265.990631,560.512329 265.121338,559.934570 
z"/>
<path fill="#020001" opacity="1.000000" stroke="none" 
	d="
M626.971191,713.792480 
	C626.551941,700.291504 626.455078,686.609741 626.484131,672.476318 
	C627.069275,672.987122 627.921143,673.946716 627.927917,674.912292 
	C628.014343,687.213745 627.989075,699.516113 627.946594,711.818054 
	C627.944519,712.416687 627.520874,713.013855 626.971191,713.792480 
z"/>
<path fill="#020001" opacity="1.000000" stroke="none" 
	d="
M321.182861,559.806091 
	C331.368591,559.396423 341.713959,559.329956 352.518646,559.354370 
	C352.068176,559.961304 351.163330,560.915283 350.247803,560.925659 
	C341.180511,561.028503 332.111359,560.989563 323.043121,560.930725 
	C322.474579,560.927063 321.909302,560.421387 321.182861,559.806091 
z"/>
<path fill="#020001" opacity="1.000000" stroke="none" 
	d="
M377.170898,559.740356 
	C381.037354,559.320251 385.052734,559.248352 389.524048,559.255981 
	C385.931091,562.463257 381.612762,561.062866 377.170898,559.740356 
z"/>
<path fill="#020001" opacity="1.000000" stroke="none" 
	d="
M559.219238,728.731934 
	C558.839478,723.977783 558.763672,718.934814 558.796265,713.434143 
	C559.110840,718.132019 559.317078,723.287598 559.219238,728.731934 
z"/>
<path fill="#020001" opacity="1.000000" stroke="none" 
	d="
M575.811157,738.249390 
	C576.198120,742.020630 576.275269,746.072327 576.241211,750.578369 
	C575.920349,746.865173 575.710876,742.697510 575.811157,738.249390 
z"/>
<path fill="#020001" opacity="1.000000" stroke="none" 
	d="
M559.214844,704.738220 
	C558.848145,701.309937 558.782532,697.598083 558.820068,693.433838 
	C559.120789,696.805847 559.318359,700.630249 559.214844,704.738220 
z"/>
<path fill="#020001" opacity="1.000000" stroke="none" 
	d="
M559.219482,687.746521 
	C558.857788,685.301147 558.789673,682.584167 558.823730,679.424683 
	C559.121643,681.813049 559.317322,684.643982 559.219482,687.746521 
z"/>
<path fill="#020001" opacity="1.000000" stroke="none" 
	d="
M627.010986,747.877319 
	C626.631226,746.968872 626.550537,745.850708 626.597778,744.327698 
	C626.920471,745.171082 627.115295,746.419434 627.010986,747.877319 
z"/>
<path fill="#020001" opacity="1.000000" stroke="none" 
	d="
M575.846436,756.176636 
	C576.193359,757.057190 576.263428,758.145447 576.223389,759.630554 
	C575.932007,758.813049 575.750793,757.598755 575.846436,756.176636 
z"/>
<path fill="#020001" opacity="1.000000" stroke="none" 
	d="
M559.367493,612.965515 
	C559.079773,612.827942 559.024109,612.667358 559.016174,612.256348 
	C559.472961,612.153259 559.881958,612.300537 560.291016,612.447815 
	C560.060547,612.612732 559.830078,612.777649 559.367493,612.965515 
z"/>
<path fill="#020001" opacity="1.000000" stroke="none" 
	d="
M392.537903,560.487854 
	C392.563721,560.532898 392.512115,560.442810 392.537903,560.487854 
z"/>
<path fill="#020001" opacity="1.000000" stroke="none" 
	d="
M558.850952,536.962769 
	C558.563049,536.940674 558.456909,536.798584 558.389160,536.393127 
	C558.629395,536.367432 558.831116,536.605042 558.850952,536.962769 
z"/>
<path fill="#121113" opacity="1.000000" stroke="none" 
	d="
M275.536682,529.165283 
	C275.371002,516.747253 275.276764,504.759979 275.189301,492.772644 
	C275.182037,491.774323 275.043152,490.733337 275.269501,489.784729 
	C276.119049,486.224396 278.060333,483.689880 282.073486,483.763550 
	C286.389465,483.842743 288.385651,486.548035 288.488586,490.506653 
	C288.717926,499.326874 288.698547,508.153595 288.774109,516.977722 
	C288.789459,518.770874 288.776367,520.564209 288.776367,522.863037 
	C290.818817,522.863037 292.434418,522.862061 294.050018,522.863159 
	C320.858765,522.881531 347.667480,522.898804 374.476227,522.922302 
	C375.973511,522.923584 377.499786,522.799988 378.962433,523.039917 
	C383.060455,523.712158 385.983704,527.060242 385.500854,530.530151 
	C384.904419,534.816101 382.014618,536.197876 378.046661,536.191895 
	C346.242645,536.144043 314.438568,536.085938 282.634613,536.122742 
	C278.046021,536.128052 275.899353,533.980530 275.536682,529.165283 
z"/>
<path fill="#161415" opacity="1.000000" stroke="none" 
	d="
M380.803894,474.146606 
	C383.705811,477.819794 383.213226,480.788086 380.076660,483.623444 
	C372.049591,490.879608 364.182892,498.315735 356.068329,505.471558 
	C350.547180,510.340302 348.601288,510.255249 342.496185,505.989594 
	C337.731873,502.660736 332.984131,499.308167 327.855621,495.703705 
	C322.577118,499.952698 317.278595,504.170044 312.035492,508.455261 
	C308.612335,511.252991 305.139038,511.610443 301.593689,508.825500 
	C298.527374,506.416809 297.940186,503.308594 300.908722,500.746002 
	C308.461060,494.226440 316.153137,487.838440 324.174957,481.920502 
	C325.645782,480.835419 329.381256,481.459534 331.299164,482.596863 
	C336.982117,485.966980 342.278992,489.988098 348.040619,493.971527 
	C355.349182,487.660614 362.669037,481.397705 369.918365,475.054260 
	C373.242767,472.145355 376.607574,470.633453 380.803894,474.146606 
z"/>
<path fill="#161415" opacity="1.000000" stroke="none" 
	d="
M321.999084,604.780212 
	C312.834839,604.760864 304.170319,604.753967 295.505981,604.719421 
	C290.163330,604.698120 287.029785,602.069946 287.047333,597.680542 
	C287.064240,593.445068 290.347046,590.793274 295.638794,590.790161 
	C310.135162,590.781555 324.631561,590.801025 339.127930,590.782593 
	C342.854675,590.777832 346.096191,592.262939 346.786621,595.845642 
	C347.205566,598.019531 346.024689,601.174988 344.454498,602.852051 
	C343.131348,604.265198 340.229004,604.571533 337.991821,604.682129 
	C332.838470,604.936768 327.664490,604.774231 321.999084,604.780212 
z"/>
<path fill="#121113" opacity="1.000000" stroke="none" 
	d="
M320.916473,418.292603 
	C315.574432,413.524139 313.554596,407.936127 315.590698,401.414001 
	C317.423859,395.542084 321.757019,392.003754 327.794800,390.924957 
	C333.972015,389.821228 339.023621,392.133453 342.472290,397.239838 
	C345.977264,402.429504 346.732117,408.050446 343.137299,413.612305 
	C339.404816,419.387177 333.816254,421.449860 327.222870,420.731415 
	C325.161865,420.506866 323.208344,419.295746 320.916473,418.292603 
z"/>
<path fill="#161415" opacity="1.000000" stroke="none" 
	d="
M545.915894,455.090210 
	C544.765625,454.103363 543.462402,453.427338 543.194946,452.463837 
	C542.560120,450.176910 541.287415,446.765869 542.312500,445.594879 
	C544.340576,443.278168 547.445557,442.744873 550.757629,445.111359 
	C553.540222,447.099518 557.053101,448.391693 560.427734,449.065430 
	C561.788696,449.337158 565.143250,446.803375 564.991943,446.132782 
	C564.525635,444.066467 563.212891,441.627258 561.474609,440.547302 
	C559.013550,439.018280 555.701172,438.920441 553.078064,437.575989 
	C549.892456,435.943237 546.528015,434.122192 544.167664,431.536591 
	C540.140381,427.124847 541.044861,420.573212 545.608032,416.346954 
	C547.792664,414.323669 550.027893,412.333221 552.415588,410.564819 
	C553.101624,410.056702 554.734802,409.921204 555.363342,410.386078 
	C560.107361,413.895050 560.482605,413.898407 563.596130,409.030914 
	C566.452393,411.303528 569.332458,413.516357 572.119690,415.840485 
	C573.978760,417.390686 576.689636,418.897400 574.040894,421.813293 
	C571.681396,424.410645 569.237915,426.281158 565.503235,423.370819 
	C563.435730,421.759766 560.481262,420.160675 558.109253,420.396088 
	C555.911926,420.614197 553.957703,423.281342 551.896423,424.870056 
	C553.381226,426.614288 554.533691,429.070404 556.421326,429.951904 
	C560.143677,431.690063 564.415527,432.226715 568.200989,433.860474 
	C573.550659,436.169312 576.352051,441.778931 575.545593,447.328552 
	C574.844177,452.155945 568.634094,458.952423 564.166992,459.577637 
	C563.378357,459.688019 562.489502,458.983398 561.629578,458.709564 
	C560.558899,458.368561 559.037048,457.465729 558.457336,457.872009 
	C553.343689,461.455170 550.009949,457.443542 545.915894,455.090210 
z"/>
</svg>